<svg xmlns="http://www.w3.org/2000/svg" viewBox="0 0 1300 650"><defs><marker id="a" markerWidth="9" markerHeight="9" refX="8" refY="4.5" orient="auto"><path d="M0 0L9 4.5 0 9z" fill="#315c48"/></marker></defs><rect width="1300" height="650" rx="28" fill="#f5f9f7"/><g font-family="system-ui,Segoe UI,PingFang SC,sans-serif"><text x="650" y="60" text-anchor="middle" font-size="28" font-weight="700" fill="#203129">Recovery 是故障状态机，不是“失败就重试”</text><rect x="505" y="105" width="290" height="75" rx="17" fill="#315c48"/><text x="650" y="152" text-anchor="middle" font-size="22" font-weight="700" fill="#fff">Failure + Current World State</text><g fill="#fff" stroke="#315c48" stroke-width="2"><rect x="55" y="300" width="155" height="90" rx="15"/><rect x="230" y="300" width="155" height="90" rx="15"/><rect x="405" y="300" width="155" height="90" rx="15"/><rect x="580" y="300" width="155" height="90" rx="15"/><rect x="755" y="300" width="155" height="90" rx="15"/><rect x="930" y="300" width="155" height="90" rx="15"/><rect x="1105" y="300" width="140" height="90" rx="15"/></g><g fill="#203129" text-anchor="middle" font-size="17" font-weight="700"><text x="132" y="353">Retry</text><text x="307" y="353">Repair</text><text x="482" y="353">Replan</text><text x="657" y="353">Compensate</text><text x="832" y="353">Resume</text><text x="1007" y="353">Ask Human</text><text x="1175" y="353">Abort</text></g><g stroke="#315c48" stroke-width="2.6" fill="none" marker-end="url(#a)"><path d="M650 180V245"/><path d="M650 245H132V290"/><path d="M650 245H307V290"/><path d="M650 245H482V290"/><path d="M650 245H657V290"/><path d="M650 245H832V290"/><path d="M650 245H1007V290"/><path d="M650 245H1175V290"/></g><rect x="300" y="485" width="700" height="92" rx="18" fill="#e7f0eb" stroke="#315c48"/><text x="650" y="522" text-anchor="middle" font-size="20" font-weight="700" fill="#203129">策略应绑定 Error Type + Side-effect State</text><text x="650" y="553" text-anchor="middle" font-size="16" fill="#52635b">transient→retry · invalid args→repair · plan invalid→replan · unknown side effect→reconcile</text></g></svg>