<svg xmlns="http://www.w3.org/2000/svg" viewBox="0 0 1200 620"><defs><marker id="a" markerWidth="9" markerHeight="9" refX="8" refY="4.5" orient="auto"><path d="M0 0L9 4.5 0 9z" fill="#315c48"/></marker></defs><rect width="1200" height="620" rx="28" fill="#f5f9f7"/><g font-family="system-ui,Segoe UI,PingFang SC,sans-serif"><text x="600" y="60" text-anchor="middle" font-size="28" font-weight="700" fill="#203129">现代系统里的 Prompt，只是 Runtime Context 的一部分</text><g fill="#fff" stroke="#315c48" stroke-width="2"><rect x="70" y="135" width="250" height="75" rx="15"/><rect x="70" y="240" width="250" height="75" rx="15"/><rect x="70" y="345" width="250" height="75" rx="15"/><rect x="70" y="450" width="250" height="75" rx="15"/><rect x="880" y="135" width="250" height="75" rx="15"/><rect x="880" y="240" width="250" height="75" rx="15"/><rect x="880" y="345" width="250" height="75" rx="15"/><rect x="880" y="450" width="250" height="75" rx="15"/></g><g fill="#203129" text-anchor="middle" font-size="18" font-weight="700"><text x="195" y="180">Instructions</text><text x="195" y="285">User Input</text><text x="195" y="390">Task State</text><text x="195" y="495">History / Memory</text><text x="1005" y="180">Retrieved Knowledge</text><text x="1005" y="285">Tool Definitions</text><text x="1005" y="390">Tool Results</text><text x="1005" y="495">Examples / Environment</text></g><rect x="430" y="210" width="340" height="245" rx="28" fill="#315c48"/><text x="600" y="280" text-anchor="middle" font-size="28" font-weight="700" fill="#fff">Runtime Context</text><text x="600" y="325" text-anchor="middle" font-size="18" fill="#eaf2ee">当前这一轮模型实际看见的工作集</text><text x="600" y="380" text-anchor="middle" font-size="19" font-weight="700" fill="#fff">Select · Shape · Order · Budget</text><g stroke="#315c48" stroke-width="2.5" marker-end="url(#a)"><path d="M320 172H420"/><path d="M320 277H420"/><path d="M320 382H420"/><path d="M320 487H420"/><path d="M880 172H780"/><path d="M880 277H780"/><path d="M880 382H780"/><path d="M880 487H780"/></g></g></svg>